<?xml version="1.0" standalone="no"?>
<!DOCTYPE svg PUBLIC "-//W3C//DTD SVG 20010904//EN"
 "http://www.w3.org/TR/2001/REC-SVG-20010904/DTD/svg10.dtd">
<svg version="1.0" xmlns="http://www.w3.org/2000/svg"
 width="196.000000pt" height="196.000000pt" viewBox="0 0 196.000000 196.000000"
 preserveAspectRatio="xMidYMid meet">

<g transform="translate(0.000000,196.000000) scale(0.100000,-0.100000)"
fill="#000000" stroke="none">
<path d="M863 1949 c-331 -43 -615 -249 -757 -550 -73 -153 -91 -237 -91 -419
0 -130 4 -169 23 -240 165 -610 824 -910 1382 -630 245 123 423 341 502 615
20 70 23 102 23 255 0 199 -13 265 -85 418 -177 377 -588 605 -997 551z m374
-349 c74 -45 83 -139 19 -197 -28 -26 -44 -33 -76 -33 -52 0 -96 23 -115 60
-60 115 63 237 172 170z m-337 -530 l0 -430 -90 0 c-87 0 -90 1 -96 25 -8 31
-8 31 -47 1 -120 -91 -288 -29 -347 129 -31 83 -32 217 -1 296 26 69 80 133
135 161 56 29 141 29 190 0 l36 -21 0 85 c0 58 5 95 16 115 20 40 84 68 152
69 l52 0 0 -430z m378 -142 c-4 -281 -7 -340 -21 -376 -41 -107 -99 -143 -227
-143 -44 0 -88 4 -97 9 -14 8 -12 12 14 25 45 23 80 71 98 129 12 42 15 114
15 370 l0 318 111 0 111 0 -4 -332z m334 -76 c57 -57 46 -162 -22 -197 -62
-32 -137 -14 -171 42 -39 62 -10 155 56 184 39 17 105 3 137 -29z"/>
<path d="M572 1090 c-33 -14 -52 -68 -52 -147 0 -102 40 -155 105 -139 49 12
55 29 55 150 0 79 -4 117 -12 124 -20 15 -71 22 -96 12z"/>
</g>
</svg>
